Land_normalized_Precision Landing05_filtered_grf
version=1
nRows=20
nColumns=37
inDegrees=yes
endheader
time		1_ground_force_vx		1_ground_force_vy		1_ground_force_vz		1_ground_force_px		1_ground_force_py		1_ground_force_pz		1_ground_torque_x		1_ground_torque_y		1_ground_torque_z		2_ground_force_vx		2_ground_force_vy		2_ground_force_vz		2_ground_force_px		2_ground_force_py		2_ground_force_pz		2_ground_torque_x		2_ground_torque_y		2_ground_torque_z		3_ground_force_vx		3_ground_force_vy		3_ground_force_vz		3_ground_force_px		3_ground_force_py		3_ground_force_pz		3_ground_torque_x		3_ground_torque_y		3_ground_torque_z		4_ground_force_vx		4_ground_force_vy		4_ground_force_vz		4_ground_force_px		4_ground_force_py		4_ground_force_pz		4_ground_torque_x		4_ground_torque_y		4_ground_torque_z		
1.523667		-5.505788		740.259108		247.495880		0.076124		0.000000		0.263757		-0.080617		10.842584		3.625120		69.505960		744.478609		216.436904		-0.165912		0.000000		0.278590		3.540837		37.927727		11.027047		1.964699		-1.199860		-0.918056		0.352356		1.256244		1.892900		-0.020634		-0.011005		-0.000646		-5.756259		0.778867		-1.614635		-0.288844		1.264919		1.901202		-0.025053		0.003390		-0.007027		
1.526975		-12.832515		739.171992		236.063840		0.077953		0.000000		0.264943		-0.175552		10.112594		3.229597		78.212570		748.849152		190.584069		-0.165440		0.000000		0.282389		3.663835		35.079867		8.928030		1.990027		-1.206491		-0.850604		0.352333		1.256250		1.892915		-0.016685		-0.008572		0.002980		-5.813325		0.699290		-1.663911		-0.288869		1.264936		1.901217		-0.025622		0.003082		-0.007334		
1.530283		-20.724940		737.693975		225.503366		0.079181		0.000000		0.264523		-0.259118		9.224979		2.820019		85.041803		750.847238		168.140808		-0.165203		0.000000		0.285197		3.672953		32.429872		7.262556		2.030631		-1.197545		-0.838085		0.352300		1.256260		1.892931		-0.012364		-0.005987		0.006605		-5.783847		0.610879		-1.810345		-0.288902		1.264950		1.901235		-0.028062		0.002964		-0.008784		
1.533591		-28.644292		737.358056		215.315574		0.080306		0.000000		0.264039		-0.331582		8.536005		2.492618		87.464872		749.491293		150.680533		-0.164711		0.000000		0.286662		3.515823		30.127286		6.057027		2.062658		-1.180393		-0.854607		0.352258		1.256270		1.892945		-0.009303		-0.003595		0.009178		-5.654183		0.549513		-1.988298		-0.288940		1.264953		1.901252		-0.031171		0.003029		-0.010961		
1.536899		-35.968144		739.469932		205.770434		0.081629		0.000000		0.264419		-0.399667		8.216900		2.286506		85.300170		744.958444		138.191431		-0.163830		0.000000		0.286966		3.228906		28.199031		5.231055		2.058917		-1.181814		-0.881106		0.352214		1.256277		1.892955		-0.008740		-0.001756		0.010261		-5.435093		0.520920		-2.116685		-0.288977		1.264949		1.901268		-0.033634		0.003224		-0.013099		
1.540207		-42.028375		744.160282		197.664957		0.083021		0.000000		0.265472		-0.463129		8.200200		2.178146		80.141312		737.855905		129.423881		-0.162702		0.000000		0.286586		2.886995		26.579954		4.662321		2.001627		-1.219201		-0.917690		0.352176		1.256276		1.892956		-0.010817		-0.001071		0.009716		-5.168237		0.502835		-2.146862		-0.289008		1.264939		1.901281		-0.034527		0.003359		-0.014343		
1.543515		-46.377536		750.529157		191.624462		0.084068		0.000000		0.266385		-0.519195		8.402141		2.145226		73.869570		728.542675		122.612481		-0.161523		0.000000		0.285997		2.549442		25.143965		4.231690		1.899791		-1.280129		-0.972517		0.352152		1.256264		1.892949		-0.014506		-0.002112		0.007406		-4.916251		0.473595		-2.087539		-0.289031		1.264927		1.901293		-0.007578		0.136988		-0.044925		
1.546823		-48.999834		757.397559		187.691535		0.084513		0.000000		0.266632		-0.567848		8.777265		2.175093		67.641832		716.925239		116.135870		-0.160371		0.000000		0.285501		2.239894		23.739909		3.845700		1.790809		-1.329432		-1.040491		0.352139		1.256244		1.892939		-0.018114		-0.004753		0.003396		-4.742481		0.436151		-1.985003		-0.289047		1.264918		1.901305		-0.005470		0.135992		-0.044049		
1.550131		-50.215894		763.707731		185.402795		0.084485		0.000000		0.266348		-0.604954		9.200424		2.233551		61.826289		702.925615		108.925826		-0.159223		0.000000		0.285207		1.956287		22.241405		3.446581		1.721733		-1.333815		-1.092785		0.352135		1.256218		1.892932		-0.020003		-0.007781		-0.001542		-4.685676		0.416066		-1.886091		-0.289057		1.264912		1.901320		-0.002821		0.135604		-0.042077		
1.553439		-50.240507		768.544646		184.287651		0.084216		0.000000		0.265889		-0.624999		9.560814		2.292565		56.456042		686.879648		100.675514		-0.158047		0.000000		0.285120		1.693610		20.605328		3.020136		1.726223		-1.283310		-1.097789		0.352135		1.256192		1.892929		-0.019312		-0.009636		-0.006052		-4.748378		0.435578		-1.810864		-0.289062		1.264911		1.901335		-0.000299		0.136652		-0.038924		
1.556747		-49.061485		771.221433		184.132207		0.083812		0.000000		0.265434		-0.630620		9.913099		2.366792		51.568139		669.605534		91.823232		-0.156858		0.000000		0.285180		1.455479		18.898767		2.591661		1.811359		-1.196493		-1.057273		0.352133		1.256173		1.892930		-0.016339		-0.009556		-0.008818		-4.901227		0.489710		-1.756589		-0.289063		1.264912		1.901350		0.001223		0.139212		-0.035460		
1.560056		-46.702282		771.605068		184.931569		0.083312		0.000000		0.265026		-0.626219		10.346321		2.479718		47.198436		652.160011		83.329021		-0.155704		0.000000		0.285269		1.249966		17.271142		2.206822		1.956026		-1.110127		-1.020486		0.352128		1.256163		1.892937		-0.012396		-0.008186		-0.009290		-5.100033		0.547913		-1.721225		-0.289059		1.264915		1.901364		-0.022699		0.002439		-0.007661		
1.563364		-43.410597		770.262086		186.636245		0.082792		0.000000		0.264743		-0.609037		10.806714		2.618498		43.262879		635.621230		76.275562		-0.154622		0.000000		0.285246		1.081190		15.884672		1.906211		2.123007		-1.064496		-1.053498		0.352120		1.256166		1.892945		-0.009047		-0.006974		-0.007836		-5.305600		0.578818		-1.717568		-0.289051		1.264918		1.901374		-0.024967		0.002724		-0.008083		
1.566672		-39.557502		768.436659		188.869381		0.082310		0.000000		0.264648		-0.577532		11.219239		2.757516		39.554480		620.967147		71.390741		-0.153622		0.000000		0.285006		0.945213		14.838726		1.705973		2.275751		-1.087415		-1.182927		0.352117		1.256181		1.892951		-0.007371		-0.006853		-0.005455		-5.492929		0.572843		-1.761728		-0.289040		1.264920		1.901376		-0.028164		0.002937		-0.009033		
1.569980		-35.396555		767.733202		190.936621		0.081860		0.000000		0.264693		-0.537368		11.655295		2.898693		35.925933		608.954257		68.765908		-0.152698		0.000000		0.284534		0.834171		14.139386		1.596684		2.392984		-1.178892		-1.363557		0.352120		1.256202		1.892955		-0.007649		-0.007254		-0.003221		-5.648587		0.541965		-1.852290		-0.289029		1.264921		1.901372		-0.030958		0.002970		-0.010151		
1.573288		-31.044729		769.755392		192.091239		0.081444		0.000000		0.264784		-0.493125		12.227524		3.051357		32.426980		600.073367		67.924520		-0.151853		0.000000		0.283899		0.741459		13.720903		1.553119		2.470274		-1.304905		-1.499383		0.352133		1.256225		1.892954		-0.009474		-0.006417		-0.001798		-5.759347		0.500753		-1.962893		-0.289019		1.264922		1.901361		-0.032107		0.002792		-0.010942		
1.576596		-26.617667		775.582608		191.818478		0.081125		0.000000		0.264863		-0.443314		12.917586		3.194792		29.235415		594.466677		68.122824		-0.151103		0.000000		0.283212		0.663222		13.485786		1.545401		2.514040		-1.407985		-1.509874		0.352153		1.256247		1.892951		-0.012031		-0.003080		-0.001245		-5.806739		0.454470		-2.058079		-0.289008		1.264922		1.901347		-0.031054		0.002431		-0.011007		
1.579904		-22.274144		785.578161		189.847072		0.080989		0.000000		0.264983		-0.386914		13.646295		3.297824		26.472501		592.017991		68.744555		-0.150456		0.000000		0.282566		0.596958		13.350049		1.550194		2.530342		-1.433298		-1.385654		0.352175		1.256264		1.892945		-0.014517		0.001989		-0.001257		-5.773221		0.405408		-2.117097		-0.288994		1.264922		1.901332		-0.028195		0.001980		-0.010339		
1.583212		-18.143633		799.302237		186.172877		0.081112		0.000000		0.265317		-0.327107		14.411153		3.356605		24.117675		592.340994		69.379596		-0.149899		0.000000		0.281999		0.539438		13.248772		1.551799		2.517823		-1.355560		-1.193823		0.352197		1.256276		1.892943		-0.016424		0.006089		-0.001475		-5.661504		0.365511		-2.143095		-0.288976		1.264922		1.901319		-0.024649		0.001591		-0.009330		
1.586520		-14.253702		815.595144		181.170449		0.081507		0.000000		0.265999		-0.266497		15.249112		3.387323		22.126790		594.920090		69.702346		-0.149405		0.000000		0.281532		0.488289		13.128542		1.538173		2.466066		-1.197170		-1.026290		0.352218		1.256284		1.892945		-0.017623		0.006549		-0.001726		-5.505123		0.353286		-2.149332		-0.288952		1.264920		1.901309		-0.021594		0.001386		-0.008431		
